HIERARCHY
ROOT hip
{
	OFFSET 0.000000 0.000000 0.000000 
	CHANNELS 6 Xposition Yposition Zposition Xrotation Zrotation Yrotation
	JOINT abdomen
	{
		OFFSET 0.000000 3.402643 0.000000 
		CHANNELS 3 Xrotation Zrotation Yrotation
		JOINT chest
		{
			OFFSET 0.000000 8.438565 -0.680529 
			CHANNELS 3 Xrotation Zrotation Yrotation
			JOINT neck
			{
				OFFSET 0.000000 10.207942 -0.272212 
				CHANNELS 3 Xrotation Zrotation Yrotation
				JOINT head
				{
					OFFSET 0.000000 3.130431 0.000000 
					CHANNELS 3 Xrotation Zrotation Yrotation
					End Site
					{
						OFFSET 0.000000 3.130435 0.000000 
					}
				}
			}
			JOINT lCollar
			{
				OFFSET 3.470700 6.669187 -0.816635 
				CHANNELS 3 Yrotation Zrotation Xrotation
				JOINT lShldr
				{
					OFFSET 3.198488 0.000000 0.000000 
					CHANNELS 3 Zrotation Yrotation Xrotation
					JOINT lForeArm
					{
						OFFSET 10.139888 0.000000 0.000000 
						CHANNELS 3 Yrotation Zrotation Xrotation
						JOINT lHand
						{
							OFFSET 8.370511 0.000000 0.000000 
							CHANNELS 3 Zrotation Yrotation Xrotation
							End Site
							{
								OFFSET 4.083176 0.000000 0.000000 
							}
						}
					}
				}
			}
			JOINT rCollar
			{
				OFFSET -3.470700 6.669187 -0.816635 
				CHANNELS 3 Yrotation Zrotation Xrotation
				JOINT rShldr
				{
					OFFSET -3.198488 0.000000 0.000000 
					CHANNELS 3 Zrotation Yrotation Xrotation
					JOINT rForeArm
					{
						OFFSET -10.139888 0.000000 0.000000 
						CHANNELS 3 Yrotation Zrotation Xrotation
						JOINT rHand
						{
							OFFSET -8.370511 0.000000 0.000000 
							CHANNELS 3 Zrotation Yrotation Xrotation
							End Site
							{
								OFFSET -4.083176 0.000000 0.000000 
							}
						}
					}
				}
			}
		}
	}
	JOINT lThigh
	{
		OFFSET 5.308129 -1.633274 1.361059 
		CHANNELS 3 Xrotation Zrotation Yrotation
		JOINT lShin
		{
			OFFSET -2.041588 -20.007561 0.000000 
			CHANNELS 3 Xrotation Zrotation Yrotation
			JOINT lFoot
			{
				OFFSET 0.000000 -19.190928 -1.224953 
				CHANNELS 3 Xrotation Yrotation Zrotation
				End Site
				{
					OFFSET 0.000000 -2.449906 4.627600 
				}
			}
		}
	}
	JOINT rThigh
	{
		OFFSET -5.308129 -1.633274 1.361059 
		CHANNELS 3 Xrotation Zrotation Yrotation
		JOINT rShin
		{
			OFFSET 2.041588 -20.007561 0.000000 
			CHANNELS 3 Xrotation Zrotation Yrotation
			JOINT rFoot
			{
				OFFSET 0.000000 -19.190928 -1.224953 
				CHANNELS 3 Xrotation Yrotation Zrotation
				End Site
				{
					OFFSET 0.000000 -2.449906 4.627600 
				}
			}
		}
	}
}
MOTION
Frames: 18
Frame Time: 0.016667
0.052064 49.825901 4.547258 -0.186791 1.739063 -5.813196 0.000000 0.000000 0.000000 29.005842 -12.211590 1.696945 19.204561 4.314936 1.498722 -32.638378 -7.864468 2.365789 -10.364952 20.850981 3.662613 3.459604 29.838163 6.745422 -82.618172 3.793262 -0.996866 2.290382 -3.538901 -3.565149 -9.426628 -13.978835 -2.286323 7.475838 -0.325459 -32.369877 33.517742 -3.861432 -13.726383 -3.453712 -0.777651 -3.621763 -27.452929 10.436565 0.242728 71.614738 3.012032 8.399139 -12.308940 0.410047 0.012223 23.211369 -15.223032 -1.460997 6.024621 9.814116 -13.216105 -3.161053 0.121785 0.071174 
0.130059 50.238167 8.747935 0.876741 1.564267 -5.783354 0.000000 0.000000 0.000000 26.870049 -14.035355 4.760405 21.974649 2.109143 0.850471 -32.426529 -8.973348 0.968165 -12.822272 21.032873 4.609825 10.949569 31.560623 1.872751 -75.816002 3.934922 -0.870909 2.310989 -3.890339 -3.559665 -11.394226 -8.717375 -1.753502 5.576967 0.640187 -23.129919 30.054783 -4.715327 -18.335192 -3.596747 -1.140121 -3.626631 -28.856932 10.683473 0.341999 54.663967 1.285453 9.734578 -11.598862 0.245217 0.090025 26.351910 -15.210858 -1.699477 6.545894 9.595110 -15.943967 4.549559 0.050537 0.171248 
0.252626 49.970753 13.037745 1.050717 0.165446 -4.746102 0.000000 0.000000 0.000000 25.037151 -13.924632 7.274997 24.961760 1.591667 0.732953 -32.441677 -9.110577 0.741738 -13.919426 20.603167 4.987322 16.559282 29.907042 -5.100326 -67.714188 3.838343 -0.793423 2.342385 -4.417114 -3.561396 -15.874719 -3.978911 -1.158240 3.589758 2.718119 -20.559763 28.751295 -3.721623 -18.210339 -3.588868 -1.314533 -3.449350 -27.286179 11.314870 0.262761 39.902706 -0.329293 9.316614 -10.887963 0.123502 0.039122 28.008322 -13.515157 -1.220443 14.556171 9.140898 -16.617067 8.105252 -0.058967 -0.007541 
0.453173 49.012585 17.371784 0.171155 -1.589077 -3.351028 0.000000 0.000000 0.000000 24.339872 -12.547602 8.594199 26.561834 2.353023 1.172891 -32.538780 -8.414737 1.597865 -10.846746 22.210018 4.089049 17.863283 23.520971 -15.375345 -59.575459 5.423552 -1.791392 2.197237 -4.778474 -3.552123 -22.353420 -2.683183 -1.148313 4.250099 6.764988 -18.977541 29.152378 -4.131621 -18.790863 -3.588868 -1.314533 -3.449350 -23.658592 12.039386 0.289958 31.526937 -2.397897 8.414153 -11.747965 0.041031 0.020581 28.179558 -11.228475 -1.187135 29.459114 6.993551 -11.993308 7.392550 -0.022446 0.186804 
0.709438 47.642128 21.628086 -1.417034 -2.292887 -2.414084 0.000000 0.000000 0.000000 25.001820 -12.000920 7.786778 26.786596 4.069653 2.056004 -32.728542 -7.058800 3.286173 -3.107494 24.827013 1.235313 15.562559 12.232578 -26.576204 -52.474129 10.343246 -6.206450 2.207592 -5.130525 -3.546046 -28.738205 -3.928110 -2.200183 7.516331 11.335613 -17.378548 30.536427 -5.502591 -20.228817 -3.596747 -1.140121 -3.626631 -19.421986 12.020397 0.234837 31.351028 -3.984195 7.695046 -15.436641 0.287503 0.122974 26.847782 -9.655195 -1.030369 48.884380 3.281911 -5.086394 4.215529 0.043807 0.375320 
0.976847 46.405338 25.661572 -3.005090 -1.590616 -2.208078 0.000000 0.000000 0.000000 26.393974 -13.126927 3.017825 25.966360 5.677054 2.757720 -32.977528 -5.958296 4.496089 8.653222 26.536377 -3.992788 12.249874 -1.183763 -36.834187 -50.000507 17.548067 -11.633677 2.207326 -4.954196 -3.549912 -31.761982 -7.259851 -4.516875 12.159256 14.349126 -15.820046 31.938654 -6.995634 -20.971182 -3.442482 -0.953342 -3.620956 -15.166932 10.755317 0.332275 36.807533 -4.577630 7.555349 -21.950647 0.322926 0.165952 22.547876 -9.980842 -1.046434 69.122932 -1.150577 -0.709461 0.686163 0.020868 0.382921 
1.221978 45.681038 29.461065 -3.690957 -0.009755 -2.636720 0.000000 0.000000 0.000000 27.491341 -14.598536 -6.451469 26.654526 5.336041 2.668343 -32.814709 -6.104977 4.419412 20.248266 25.007990 -8.975409 8.733510 -10.914304 -44.254456 -55.958218 23.089325 -10.971769 2.362335 -4.592236 -3.559572 -29.018637 -12.125272 -6.690234 17.162376 14.770597 -15.396720 33.675812 -7.334062 -19.327593 -3.453712 -0.777651 -3.621763 -10.896122 9.089882 0.485534 41.369389 -5.485758 7.894396 -28.290579 0.059283 0.237697 14.114230 -10.844872 -1.061760 87.409958 -5.529212 -0.145571 -2.964572 0.283204 0.316273 
1.433682 45.569527 33.193699 -3.532529 0.867912 -3.047117 0.000000 0.000000 0.000000 28.038279 -14.525466 -17.826374 27.998852 3.562502 1.898757 -32.748028 -7.185962 3.228024 28.137068 21.574320 -11.245881 5.329473 -14.656962 -49.806561 -66.485054 21.797871 -4.859293 2.310989 -3.890339 -3.559665 -22.758171 -17.688574 -7.271730 19.823206 13.416877 -17.632082 35.152622 -5.943897 -15.470949 -3.289676 -0.589728 -3.604926 -5.073758 8.147573 0.514103 41.506596 -5.889280 7.919527 -32.147263 0.267210 0.188467 2.753116 -11.081631 -0.779132 100.075577 -9.015444 -2.080434 -7.011706 0.422751 0.383085 
1.578543 45.859161 37.004295 -3.354926 0.692495 -2.861473 0.000000 0.000000 0.000000 29.129404 -13.131238 -25.165071 28.517210 3.396691 1.839654 -32.728542 -7.058800 3.286173 31.146479 17.701349 -10.526646 2.992990 -16.160358 -56.930340 -75.194832 14.564144 0.259227 2.290382 -3.538901 -3.565149 -21.198931 -21.207195 -7.981916 19.191608 13.248693 -21.249916 36.413578 -3.534123 -11.498483 -3.289676 -0.589728 -3.604926 1.883138 7.795112 0.295501 38.621319 -6.524424 8.351897 -32.685410 0.091161 0.068966 -9.782810 -9.607033 -0.482549 105.741943 -10.380933 -3.034486 -10.189172 0.326838 0.169260 
1.656549 46.026321 40.926308 -3.354695 0.341474 -2.490248 0.000000 0.000000 0.000000 30.163574 -11.304695 -29.374273 29.445181 4.585187 2.587044 -32.956478 -5.701232 4.975126 31.596584 15.009463 -9.124157 -0.169673 -16.925837 -61.998768 -81.353607 6.145456 2.894799 2.267998 -3.188631 -3.541524 -19.860155 -23.732292 -8.239000 17.939028 11.511774 -27.139977 37.807575 -1.856606 -8.334195 -3.291050 -0.413413 -3.605244 8.345220 7.983726 0.120331 37.672150 -6.845939 7.979411 -30.564188 0.354479 0.246360 -23.376659 -8.798482 -0.427088 108.575607 -10.712794 -3.041147 -9.125621 0.432649 0.366359 
1.645425 46.070915 44.948612 -3.515625 0.000000 -1.953125 0.000000 0.000000 0.000000 30.847095 -9.244613 -30.645390 30.467480 6.819336 4.012960 -33.122868 -2.909637 8.174285 30.096418 13.516975 -7.817673 -4.156547 -17.824680 -62.704338 -85.043266 -1.167147 3.267941 2.257589 -3.009509 -3.368610 -19.001324 -25.715723 -8.528401 16.528721 8.406708 -35.158062 39.599632 -0.251638 -5.252928 -3.302141 -0.237711 -3.605589 14.439064 8.669446 0.428980 39.769211 -7.027744 7.335827 -27.233593 0.503714 -0.069346 -33.745392 -8.622367 -0.449437 108.017784 -9.882113 -2.487961 -8.612850 0.398881 0.165101 
1.567443 46.015228 49.037769 -3.707704 -0.536952 -1.386841 0.000000 0.000000 0.000000 31.565348 -7.215293 -29.564548 30.750837 10.150112 6.012602 -33.240147 0.649404 12.061421 27.147974 13.257783 -6.794892 -9.062987 -18.397263 -52.250626 -86.042595 -1.276942 2.047275 2.237504 -2.834719 -3.361224 -18.652996 -27.120832 -8.768957 15.158181 4.805609 -45.665455 41.790127 2.054712 -0.969858 -3.313203 -0.062007 -3.605958 19.635582 9.431884 0.276232 44.536766 -7.569154 6.725077 -24.078247 0.406960 0.250976 -36.363468 -8.983962 -0.498230 101.283493 -8.271278 -1.682764 -9.468065 0.700770 0.129404 
1.444891 45.914955 53.171486 -4.056816 -0.888538 -0.996277 0.000000 0.000000 0.000000 32.134071 -5.232913 -27.006826 30.223742 14.518923 8.354776 -33.168217 3.800383 15.601860 23.360424 13.513277 -5.816661 -14.234290 -18.352079 -27.903006 -83.183693 7.221292 -0.585101 2.267998 -3.188631 -3.541524 -18.439438 -28.180630 -8.903398 13.554650 1.058083 -55.651787 44.133720 4.538033 2.740438 -3.148782 0.125291 -3.596236 22.666393 10.438880 0.243919 51.319420 -7.384457 6.158929 -21.073036 0.214122 0.118964 -33.111485 -9.647550 -0.377868 89.502075 -5.292510 -0.835183 -11.600165 0.172012 0.075145 
1.277771 45.803539 57.338634 -4.413280 -1.406210 -0.430037 0.000000 0.000000 0.000000 32.573032 -3.427184 -23.638897 29.000051 19.261702 10.424720 -32.787041 5.821718 18.114611 18.697506 14.253695 -4.845448 -18.923178 -17.245440 0.352751 -76.378082 16.086277 -5.260635 2.321239 -4.066061 -3.556968 -18.149523 -28.895832 -9.012762 11.915095 -2.706062 -63.013645 46.876747 5.894033 5.085055 -3.180444 0.476100 -3.596111 23.741199 11.499863 0.204033 59.187981 -6.893987 5.752841 -17.013706 0.561971 0.082550 -28.959288 -10.369555 -0.448590 78.034767 -1.767754 -0.496998 -13.857278 -0.090433 0.204364 
1.088361 45.725529 61.505806 -4.588345 -1.757812 -0.049105 0.000000 0.000000 0.000000 32.697746 -1.780680 -19.971220 27.032179 23.646128 11.583253 -32.707382 6.759339 19.083300 14.016746 14.935059 -3.733753 -22.289850 -15.065526 17.158344 -69.706039 14.764073 -7.697705 2.372476 -4.767966 -3.557026 -17.627983 -29.319700 -8.852052 10.220420 -5.989676 -67.751999 49.636688 6.682443 6.395005 -3.202242 0.827530 -3.596071 22.523567 12.369978 0.390800 69.913078 -5.559545 5.564019 -13.880953 0.382015 0.178745 -24.147093 -11.033831 -0.639925 67.771416 2.060519 -1.135651 -17.206528 -0.203306 0.339877 
0.876666 45.725510 65.650688 -4.756974 -1.933563 0.322412 0.000000 0.000000 0.000000 32.694122 -0.600120 -16.221630 24.788818 26.871147 11.865717 -32.707382 6.759339 19.083300 9.123430 15.526985 -2.498396 -24.189333 -11.623321 22.557463 -66.717690 8.295920 -5.873256 2.383425 -4.943292 -3.565074 -16.620768 -29.445150 -8.325315 8.675146 -8.576468 -71.235168 51.942284 7.627791 7.380646 -3.027886 1.014880 -3.592994 19.345921 13.231951 0.495983 80.865707 -3.445277 5.269409 -11.777639 0.518080 0.031859 -19.084049 -11.558012 -0.548601 58.560436 5.575461 -2.217118 -20.546316 -0.236525 0.295071 
0.676104 45.825752 69.739876 -4.758323 -2.109339 0.332166 0.000000 0.000000 0.000000 32.677952 -0.009521 -12.851564 22.330303 28.493996 11.162946 -32.838753 6.351832 18.359613 4.569815 16.034260 -1.337787 -24.449320 -7.065665 23.494396 -66.654007 3.398533 -3.409363 2.383425 -4.943292 -3.565074 -15.143091 -29.116348 -7.507424 7.649383 -10.115670 -74.558945 53.495438 9.821692 8.835402 -3.038702 1.190599 -3.592503 14.782698 13.562123 0.518733 90.490372 -0.846466 5.539334 -10.182278 0.557505 0.043204 -13.308151 -11.736190 -0.528476 50.353359 8.689023 -3.977111 -23.359234 -0.070710 0.204376 
0.486685 46.093109 73.773338 -4.585860 -2.119133 0.156143 0.000000 0.000000 0.000000 32.337994 0.144285 -9.941422 20.354025 27.793135 9.838831 -32.903847 5.148957 17.269438 0.548088 16.257914 -0.216007 -23.006468 -1.235687 23.269941 -69.339722 1.328049 -2.090492 2.362335 -4.592236 -3.559572 -13.612807 -28.231863 -6.527528 7.135044 -10.210013 -78.933891 53.349468 13.642752 11.554247 -3.049486 1.366320 -3.592039 8.502956 13.539960 0.559176 98.173553 1.593722 6.152380 -9.819574 0.356467 -0.055336 -7.378360 -11.916213 -0.911960 42.368137 10.154617 -4.846827 -24.941223 -0.144638 0.167435 
